<svg width="1004" height="560" viewBox="0 0 1004 560" fill="none" xmlns="http://www.w3.org/2000/svg">
<g clip-path="url(#path)">
    <path d="M 431 105 L 300 192.133 V 385 H 392 V 238 H 465 V 385 H 557 V 188 L 432 105 Z" fill="#FFC700"/>
    <path d="M 465 55 V 83 L 502 107 L 534 128 H 557 V 144 L 594 168 V 202 H 630 V 238 H 594 
    V 275 H 630 V 312 H 594 V 385 H 704 V 55 H 465 Z M630 165 H 594 V 128 H 630 V 165 Z" fill="#FFC700"/>
</g>
<path d="M 312 520 V 436 H 348 C 356 436 362 437 368 439 C 373 442 377 446 380 450 C 383 455 385 460 385 466 C 384.878 472.72 383.398 478.12 380.438 482.68C377.478 487.16 373.278 490.6 367.838 493C362.398 495.4 355.918 496.6 348.398 496.6 H 322.838 L 331.478 488.08V520H312.038ZM365.438 520L344.438 489.52H365.198L386.438 520H365.438ZM331.478 490.24L322.838 481.12H347.318C353.318 481.12 357.798 479.84 360.758 477.28C363.718 474.64 365.198 471.04 365.198 466.48C365.198 461.84 363.718 458.24 360.758 455.68C357.798 453.12 353.318 451.84 347.318 451.84H322.838L331.478 442.6V490.24ZM431 520.96C423.64 520.96 417.16 519.52 411.56 516.64C406.04 513.76 401.76 509.84 398.72 504.88C395.68 499.84 394.16 494.12 394.16 487.72C394.16 481.24 395.64 475.52 398.6 470.56C401.64 465.52 405.76 461.6 410.96 458.8C416.16 455.92 422.04 454.48 428.6 454.48C434.92 454.48 440.6 455.84 445.64 458.56C450.76 461.2 454.8 465.04 457.76 470.08C460.72 475.04 462.2 481 462.2 487.96C462.2 488.68 462.16 489.52 462.08 490.48C462 491.36 461.92 492.2 461.84 493H409.4V482.08H452L444.8 485.32C444.8 481.96 444.12 479.04 442.76 476.56C441.4 474.08 439.52 472.16 437.12 470.8C434.72 469.36 431.92 468.64 428.72 468.64C425.52 468.64 422.68 469.36 420.2 470.8C417.8 472.16 415.92 474.12 414.56 476.68C413.2 479.16 412.52 482.12 412.52 485.56V488.44C412.52 491.96 413.28 495.08 414.8 497.8C416.4 500.44 418.6 502.48 421.4 503.92C424.28 505.28 427.64 505.96 431.48 505.96C434.92 505.96 437.92 505.44 440.48 504.4C443.12 503.36 445.52 501.8 447.68 499.72L457.64 510.52C454.68 513.88 450.96 516.48 446.48 518.32C442 520.08 436.84 520.96 431 520.96ZM512.506 520V507.4L511.306 504.64V482.08C511.306 478.08 510.066 474.96 507.586 472.72C505.186 470.48 501.466 469.36 496.426 469.36C492.986 469.36 489.586 469.92 486.226 471.04C482.946 472.08 480.146 473.52 477.826 475.36L471.106 462.28C474.626 459.8 478.866 457.88 483.826 456.52C488.786 455.16 493.826 454.48 498.946 454.48C508.786 454.48 516.426 456.8 521.866 461.44C527.306 466.08 530.026 473.32 530.026 483.16V520H512.506ZM492.826 520.96C487.786 520.96 483.466 520.12 479.866 518.44C476.266 516.68 473.506 514.32 471.586 511.36C469.666 508.4 468.706 505.08 468.706 501.4C468.706 497.56 469.626 494.2 471.466 491.32C473.386 488.44 476.386 486.2 480.466 484.6C484.546 482.92 489.866 482.08 496.426 482.08H513.586V493H498.466C494.066 493 491.026 493.72 489.346 495.16C487.746 496.6 486.946 498.4 486.946 500.56C486.946 502.96 487.866 504.88 489.706 506.32C491.626 507.68 494.226 508.36 497.506 508.36C500.626 508.36 503.426 507.64 505.906 506.2C508.386 504.68 510.186 502.48 511.306 499.6L514.186 508.24C512.826 512.4 510.346 515.56 506.746 517.72C503.146 519.88 498.506 520.96 492.826 520.96ZM546.968 520V430.96H565.688V520H546.968ZM614.267 520.96C606.667 520.96 600.747 519.04 596.507 515.2C592.267 511.28 590.147 505.48 590.147 497.8V441.16H608.867V497.56C608.867 500.28 609.587 502.4 611.027 503.92C612.467 505.36 614.427 506.08 616.907 506.08C619.867 506.08 622.387 505.28 624.467 503.68L629.507 516.88C627.587 518.24 625.267 519.28 622.547 520C619.907 520.64 617.147 520.96 614.267 520.96ZM580.187 471.28V456.88H624.947V471.28H580.187ZM647.003 544.24C643.643 544.24 640.323 543.72 637.043 542.68C633.763 541.64 631.083 540.2 629.003 538.36L635.843 525.04C637.283 526.32 638.923 527.32 640.763 528.04C642.683 528.76 644.563 529.12 646.403 529.12C649.043 529.12 651.123 528.48 652.643 527.2C654.243 526 655.683 523.96 656.963 521.08L660.323 513.16L661.763 511.12L684.923 455.44H702.923L673.763 523.96C671.683 529.16 669.283 533.24 666.563 536.2C663.923 539.16 660.963 541.24 657.683 542.44C654.483 543.64 650.923 544.24 647.003 544.24ZM658.043 522.52L629.243 455.44H648.563L670.883 509.44L658.043 522.52 Z" fill="#FFC700"/>
<defs>
    <clipPath id="path">
        <rect width="440" height="440" fill="white" transform="translate(282)"/>
    </clipPath>
</defs>
</svg>
